# xmcd
#
# Track frame offsets: 
#        150
#        23872
#        44443
#        69023
#        91401
#        114989
#        131697
#        153734
#        180296
#        196774
#        213166
#        238080
#        253759
#
# Disc length: 3740 seconds
#
# Revision: 0
# Processed by: cddbd v1.5.2PL0 Copyright (c) Steve Scherf et al.
# Submitted via: ExactAudioCopy v0.99pb4
#
DISCID=a80e9a0d
DTITLE=Dave Millsap - Nothing But Troubles
DYEAR=2007
DGENRE=Blues
TTITLE0=Breaking Up Somebody's Home
TTITLE1=Linda Lu
TTITLE2=Evening
TTITLE3=Don't Do It (Done Done It)
TTITLE4=No Time
TTITLE5=Nothing But Troubles
TTITLE6=Maudie
TTITLE7=Talk Me Home
TTITLE8=Last Night
TTITLE9=Easy On Yourself
TTITLE10=You Don't Have To Say You Love Me
TTITLE11=Juarez
TTITLE12=The Killing Song
EXTD=
EXTT0=
EXTT1=
EXTT2=
EXTT3=
EXTT4=
EXTT5=
EXTT6=
EXTT7=
EXTT8=
EXTT9=
EXTT10=
EXTT11=
EXTT12=
PLAYORDER=
